<svg width="38" height="37" viewBox="0 0 38 37" fill="none" xmlns="http://www.w3.org/2000/svg">
<path d="M12.9449 9.2323H8.26506C4.80496 9.2323 2 12.0373 2 15.4974V29.1252C2 32.5853 4.80496 35.3903 8.26506 35.3903H22.3154C25.7755 35.3903 28.5804 32.5853 28.5804 29.1252V23.85" stroke="white" stroke-width="3.13253" stroke-linecap="round"/>
<path d="M25.0651 2.92004C25.4882 1.86437 26.9826 1.86437 27.4057 2.92004L29.3485 7.76791C29.4784 8.0921 29.737 8.34787 30.0626 8.47424L34.9338 10.3649C36.0066 10.7813 36.0066 12.2992 34.9338 12.7156L30.0626 14.6062C29.737 14.7326 29.4784 14.9883 29.3485 15.3125L27.4057 20.1604C26.9826 21.2161 25.4882 21.2161 25.0651 20.1604L23.1223 15.3125C22.9923 14.9883 22.7338 14.7326 22.4082 14.6062L17.537 12.7156C16.4642 12.2992 16.4642 10.7813 17.537 10.3649L22.4082 8.47424C22.7338 8.34787 22.9923 8.0921 23.1223 7.76791L25.0651 2.92004Z" fill="#2E70F9"/>
<path d="M14.4772 16.5174C14.74 15.8616 15.6682 15.8616 15.931 16.5174L17.5099 20.457C17.5906 20.6584 17.7512 20.8173 17.9535 20.8958L21.9226 22.4363C22.589 22.6949 22.589 23.6378 21.9226 23.8965L17.9535 25.437C17.7512 25.5155 17.5906 25.6744 17.5099 25.8757L15.931 29.8154C15.6682 30.4711 14.74 30.4711 14.4772 29.8154L12.8983 25.8757C12.8176 25.6744 12.657 25.5155 12.4547 25.437L8.48555 23.8965C7.81919 23.6378 7.81919 22.6949 8.48555 22.4363L12.4547 20.8958C12.657 20.8173 12.8176 20.6584 12.8983 20.457L14.4772 16.5174Z" fill="#8B84E3"/>
</svg>
