<svg width="19" height="18" viewBox="0 0 19 18" fill="none" xmlns="http://www.w3.org/2000/svg">
<path d="M17.42 9.1875C17.42 8.6025 17.3675 8.04 17.27 7.5H9.5V10.695H13.94C13.745 11.7225 13.16 12.5925 12.2825 13.1775V15.255H14.96C16.52 13.815 17.42 11.7 17.42 9.1875Z" fill="#4285F4"/>
<path d="M9.49977 17.25C11.7273 17.25 13.5948 16.515 14.9598 15.255L12.2823 13.1775C11.5473 13.6725 10.6098 13.9725 9.49977 13.9725C7.35477 13.9725 5.53227 12.525 4.87977 10.575H2.13477V12.705C3.49227 15.3975 6.27477 17.25 9.49977 17.25Z" fill="#34A853"/>
<path d="M4.88 10.5675C4.715 10.0725 4.6175 9.54749 4.6175 8.99999C4.6175 8.45249 4.715 7.92749 4.88 7.43249V5.30249H2.135C1.5725 6.41249 1.25 7.66499 1.25 8.99999C1.25 10.335 1.5725 11.5875 2.135 12.6975L4.2725 11.0325L4.88 10.5675Z" fill="#FBBC05"/>
<path d="M9.49977 4.035C10.7148 4.035 11.7948 4.455 12.6573 5.265L15.0198 2.9025C13.5873 1.5675 11.7273 0.75 9.49977 0.75C6.27477 0.75 3.49227 2.6025 2.13477 5.3025L4.87977 7.4325C5.53227 5.4825 7.35477 4.035 9.49977 4.035Z" fill="#EA4335"/>
</svg>
